<svg width="768" height="938" viewBox="0 0 768 938" fill="none" xmlns="http://www.w3.org/2000/svg">
<path d="M617.398 857H132.535V764.227L362.516 517.156C380.419 497.625 395.556 479.884 407.926 463.934C420.296 447.983 430.387 433.335 438.199 419.988C445.686 406.967 451.057 394.76 454.312 383.367C457.893 371.974 459.684 360.906 459.684 350.164C459.684 334.214 457.405 320.053 452.848 307.684C448.29 295.314 441.943 284.734 433.805 275.945C425.341 267.482 415.25 260.971 403.531 256.414C392.138 251.857 379.443 249.578 365.445 249.578C347.216 249.578 331.103 252.182 317.105 257.391C303.434 262.273 292.04 269.598 282.926 279.363C273.486 289.454 266.324 301.987 261.441 316.961C256.559 331.935 254.117 349.025 254.117 368.23H117.887C117.887 336.655 123.909 306.87 135.953 278.875C147.997 250.555 165.087 225.815 187.223 204.656C209.033 183.497 235.4 166.896 266.324 154.852C297.574 142.482 332.079 136.297 369.84 136.297C405.973 136.297 437.874 141.342 465.543 151.434C493.538 161.525 516.975 175.685 535.855 193.914C554.41 212.143 568.57 234.116 578.336 259.832C588.102 285.223 592.984 313.38 592.984 344.305C592.984 367.742 589.241 390.203 581.754 411.688C574.592 432.846 564.339 453.842 550.992 474.676C537.32 495.509 521.044 516.831 502.164 538.641C483.284 560.125 462.288 582.749 439.176 606.512L305.387 748.113H617.398V857Z" fill="#30FF51" fill-opacity="0.1"/>
</svg>
