<svg width="768" height="938" viewBox="0 0 768 938" fill="none" xmlns="http://www.w3.org/2000/svg">
<path d="M289.273 441.961H363.004C382.535 441.961 399.299 439.357 413.297 434.148C427.62 428.615 439.176 420.965 447.965 411.199C456.103 402.736 462.125 392.482 466.031 380.438C470.263 368.068 472.379 354.721 472.379 340.398C472.379 326.401 470.263 313.706 466.031 302.312C462.125 290.594 456.103 280.503 447.965 272.039C439.827 263.901 429.41 257.553 416.715 252.996C404.345 248.439 389.859 246.16 373.258 246.16C359.586 246.16 346.728 248.113 334.684 252.02C322.965 255.926 312.711 261.46 303.922 268.621C294.807 276.108 287.646 285.06 282.438 295.477C277.229 305.893 274.625 317.612 274.625 330.633H138.883C138.883 301.661 144.742 275.294 156.461 251.531C168.505 227.768 184.944 207.26 205.777 190.008C226.611 173.081 251.025 159.897 279.02 150.457C307.34 141.017 337.776 136.297 370.328 136.297C405.484 136.297 437.711 140.691 467.008 149.48C496.305 157.944 521.37 170.639 542.203 187.566C563.036 204.819 579.15 226.141 590.543 251.531C602.262 276.596 608.121 305.73 608.121 338.934C608.121 354.233 605.842 369.37 601.285 384.344C596.728 398.992 590.055 412.99 581.266 426.336C572.477 439.682 561.572 452.052 548.551 463.445C535.53 474.513 520.556 484.116 503.629 492.254C523.486 499.415 540.576 508.53 554.898 519.598C569.547 530.665 581.591 543.198 591.031 557.195C600.471 571.518 607.47 587.143 612.027 604.07C616.585 620.997 618.863 638.901 618.863 657.781C618.863 690.984 612.516 720.607 599.82 746.648C587.125 772.69 569.71 794.5 547.574 812.078C525.439 829.982 499.072 843.654 468.473 853.094C438.199 862.208 405.484 866.766 370.328 866.766C340.055 866.766 310.432 862.697 281.461 854.559C252.815 846.095 227.262 833.4 204.801 816.473C182.34 799.871 164.273 778.875 150.602 753.484C137.255 728.094 130.582 698.146 130.582 663.641H266.324C266.324 677.312 268.928 690.008 274.137 701.727C279.345 713.12 286.832 722.885 296.598 731.023C306.038 739.487 317.268 746.16 330.289 751.043C343.31 755.6 357.633 757.879 373.258 757.879C390.836 757.879 406.624 755.438 420.621 750.555C434.618 745.672 446.337 738.51 455.777 729.07C464.892 720.607 471.728 710.19 476.285 697.82C481.168 685.451 483.609 671.616 483.609 656.316C483.609 637.111 480.842 620.672 475.309 607C469.775 593.328 461.799 582.098 451.383 573.309C440.641 564.52 427.783 558.009 412.809 553.777C398.16 549.546 381.559 547.43 363.004 547.43H289.273V441.961Z" fill="#30E6FF" fill-opacity="0.1"/>
</svg>
